<svg xmlns="http://www.w3.org/2000/svg" width="24" height="24" fill="none" viewBox="0 0 24 24"><path fill="#346119" fill-rule="evenodd" d="M3.30817 16.1777L9.61933 4.40456C10.6232 2.53182 13.3768 2.53181 14.3807 4.40456L20.6918 16.1777C21.6246 17.9176 20.3276 20 18.3112 20H5.68884C3.67243 20 2.37544 17.9176 3.30817 16.1777ZM12 6C12.5523 6 13 6.44772 13 7V14C13 14.5523 12.5523 15 12 15C11.4477 15 11 14.5523 11 14V7C11 6.44772 11.4477 6 12 6ZM10.75 16.75C10.75 17.4404 11.3096 18 12 18C12.6904 18 13.25 17.4404 13.25 16.75C13.25 16.0596 12.6904 15.5 12 15.5C11.3096 15.5 10.75 16.0596 10.75 16.75Z" clip-rule="evenodd"/></svg>