<svg width="24" height="24" viewBox="0 0 24 24" fill="none" xmlns="http://www.w3.org/2000/svg">
<path d="M8.73515 3.93156C10.1163 1.35618 13.8775 1.35611 15.2586 3.93156L21.5701 15.705C22.8813 18.1512 21.0341 20.9995 18.3084 20.9999H5.68535C2.95942 20.9997 1.11228 18.1513 2.42363 15.705L8.73515 3.93156ZM13.4959 4.87688C12.869 3.70779 11.1248 3.70785 10.4978 4.87688L4.18632 16.6503C3.63258 17.6837 4.37897 18.9997 5.68535 18.9999H18.3084C19.6146 18.9995 20.361 17.6836 19.8074 16.6503L13.4959 4.87688ZM11.9969 15.4999C12.6871 15.5001 13.2469 16.0597 13.2469 16.7499C13.2469 17.4402 12.6871 17.9998 11.9969 17.9999C11.3065 17.9999 10.7469 17.4403 10.7469 16.7499C10.7469 16.0596 11.3065 15.4999 11.9969 15.4999ZM11.9969 5.99992C12.549 6.00006 12.9969 6.44772 12.9969 6.99992V13.9999C12.9969 14.5521 12.549 14.9998 11.9969 14.9999C11.4446 14.9999 10.9969 14.5522 10.9969 13.9999V6.99992C10.9969 6.44764 11.4446 5.99992 11.9969 5.99992Z" fill="currentColor"/>
</svg>
