<svg width="24" height="24" viewBox="0 0 24 24" fill="none" xmlns="http://www.w3.org/2000/svg">
<path fill-rule="evenodd" clip-rule="evenodd" d="M16.1382 1.08047C14.893 0.902906 14 1.94048 14 2.99999V7.99999C14 9.10456 14.8954 9.99999 16 9.99999H21C22.0595 9.99999 23.0971 9.10695 22.9195 7.86178C22.4192 4.35352 19.6465 1.58075 16.1382 1.08047ZM16 2.99999C15.9992 3.00283 15.9961 3.01065 15.9848 3.02143C15.9751 3.0307 15.9577 3.04337 15.9314 3.05228C15.9034 3.06177 15.8758 3.06329 15.8559 3.06044C15.9041 3.06732 15.9521 3.07477 16 3.08279V7.99999H20.9172C20.9252 8.04785 20.9327 8.0959 20.9396 8.14413C20.9367 8.12414 20.9382 8.0966 20.9477 8.06859C20.9566 8.04228 20.9693 8.02488 20.9786 8.01519C20.9893 8.00393 20.9972 8.00089 21 8.00014L20.9172 7.99999C20.4963 5.48826 18.5117 3.50374 16 3.08279V2.99999Z" fill="currentColor"/>
<path fill-rule="evenodd" clip-rule="evenodd" d="M13 3.99999C13 2.92865 12.1066 1.92671 10.8919 2.06078C5.89004 2.6128 2 6.85143 2 12C2 17.5228 6.47715 22 12 22C17.1486 22 21.3872 18.1099 21.9392 13.1081C22.0733 11.8933 21.0713 11 20 11H15C13.8954 11 13 10.1046 13 8.99999V3.99999ZM4 12C4 7.92062 7.05414 4.55324 11 4.06178V8.99999C11 11.2091 12.7909 13 15 13H19.9382C19.4467 16.9458 16.0794 20 12 20C7.58172 20 4 16.4183 4 12Z" fill="currentColor"/>
</svg>
