<svg width="24" height="24" viewBox="0 0 24 24" fill="none" xmlns="http://www.w3.org/2000/svg">
<path d="M10.2822 3.20426L3.40464 8.01856C2.53567 8.62684 2.05251 9.64877 2.13386 10.7064L2.83888 19.8716C2.92752 21.024 3.97166 21.8616 5.11583 21.6981L8.28545 21.2453C9.27074 21.1045 10.0026 20.2607 10.0026 19.2654V18C10.0026 16.8954 10.898 16 12.0026 16C13.1072 16 14.0026 16.8954 14.0026 18V19.2654C14.0026 20.2607 14.7345 21.1045 15.7198 21.2453L18.8894 21.6981C20.0335 21.8616 21.0777 21.024 21.1663 19.8716L21.8713 10.7064C21.9527 9.64877 21.4695 8.62684 20.6006 8.01857L13.723 3.20426C12.69 2.48119 11.3152 2.48119 10.2822 3.20426Z" fill="#346119"/>
</svg>
