<svg xmlns="http://www.w3.org/2000/svg" width="24" height="24" fill="none" viewBox="0 0 24 24"><path fill="currentColor" d="M10.2822 3.20417L3.40464 8.01847C2.53567 8.62675 2.05251 9.64868 2.13386 10.7063L2.83888 19.8715C2.92752 21.0239 3.97166 21.8615 5.11583 21.698L8.28545 21.2452C9.27074 21.1044 10.0026 20.2606 10.0026 19.2653V17.9999C10.0026 16.8953 10.898 15.9999 12.0026 15.9999C13.1072 15.9999 14.0026 16.8953 14.0026 17.9999V19.2653C14.0026 20.2606 14.7345 21.1044 15.7198 21.2452L18.8894 21.698C20.0335 21.8615 21.0777 21.0239 21.1663 19.8715L21.8713 10.7063C21.9527 9.64868 21.4695 8.62675 20.6006 8.01847L13.723 3.20417C12.69 2.4811 11.3152 2.4811 10.2822 3.20417Z"/></svg>