<svg width="24" height="24" viewBox="0 0 24 24" fill="none" xmlns="http://www.w3.org/2000/svg">
<path d="M12 21C16.6331 21 20.4485 17.4991 20.9452 12.9984C21.0058 12.4494 20.5523 12 20 12H15C13.3431 12 12 10.6569 12 9V4C12 3.44772 11.5506 2.99417 11.0016 3.05475C6.50088 3.55147 3 7.3669 3 12C3 16.9706 7.02944 21 12 21Z" fill="#346119"/>
<path d="M21.9295 8.00297C21.492 4.93489 19.0651 2.50798 15.997 2.07047C15.4503 1.9925 15 2.44772 15 3V8C15 8.55229 15.4477 9 16 9H21C21.5523 9 22.0075 8.54972 21.9295 8.00297Z" fill="#346119"/>
</svg>
