<svg width="24" height="24" viewBox="0 0 24 24" fill="none" xmlns="http://www.w3.org/2000/svg">
<path d="M8.53407 3.52531C9.75108 3.14233 10.8338 2.82856 11.453 2.65299C11.8133 2.55085 12.1844 2.55549 12.5423 2.66578C14.2014 3.17716 19.2128 4.76026 21.1873 5.81782L17.6941 7.28861L8.53407 3.52531Z" fill="#346119"/>
<path d="M6.34571 4.24791C4.89095 4.75515 3.51133 5.30122 2.71089 5.78048C2.73764 5.78837 2.76423 5.79784 2.79055 5.80892L11.9995 9.68626L15.7447 8.10938L6.34571 4.24791Z" fill="#346119"/>
<path d="M1.89249 6.94081C1.65708 8.59947 1.83905 13.7903 1.94167 16.2209C1.97464 17.0017 2.46462 17.6862 3.19023 17.9764L11.2568 21.203C11.2645 21.2061 11.2722 21.2091 11.2799 21.2121C11.2601 21.1449 11.2495 21.0737 11.2495 21V10.998L2.20848 7.19138C2.07742 7.1362 1.97024 7.04813 1.89249 6.94081Z" fill="#346119"/>
<path d="M12.7191 21.2122C12.7268 21.2092 12.7346 21.2061 12.7423 21.203L20.8089 17.9764C21.5345 17.6862 22.0244 17.0017 22.0574 16.2209C22.1601 13.7903 22.3421 8.59927 22.1066 6.94071C22.0289 7.04807 21.9216 7.13618 21.7905 7.19138L12.7495 10.998V21C12.7495 21.0737 12.7389 21.1449 12.7191 21.2122Z" fill="#346119"/>
</svg>
