<svg width="24" height="24" viewBox="0 0 24 24" fill="none" xmlns="http://www.w3.org/2000/svg">
<path fill-rule="evenodd" clip-rule="evenodd" d="M0.892337 6.90534C0.915386 6.72017 0.951763 6.47269 1.02946 6.24529C1.07712 6.01399 1.18205 5.82914 1.27428 5.70065C1.40103 5.52407 1.55625 5.37993 1.69863 5.26584C1.98374 5.03736 2.35089 4.82457 2.73566 4.63008C3.51526 4.23603 4.5479 3.82811 5.61012 3.44836C7.74483 2.68519 10.1343 1.98846 11.1842 1.69079C11.7309 1.53576 12.2991 1.5431 12.8407 1.71002C13.8868 2.03244 16.2713 2.78255 18.4004 3.56278C19.4607 3.95132 20.4846 4.35705 21.2537 4.72849C21.6331 4.9117 21.9895 5.10498 22.2647 5.30195C22.4002 5.39899 22.554 5.52347 22.6835 5.67655C22.7696 5.77832 22.9086 5.96684 22.9711 6.22716C23.0532 6.45946 23.0909 6.71522 23.1146 6.90531C23.1503 7.19238 23.1748 7.53908 23.1917 7.91841C23.2255 8.67972 23.2312 9.63557 23.2213 10.6379C23.2015 12.646 23.1182 14.8947 23.0604 16.263C23.0107 17.4415 22.271 18.47 21.1842 18.9048L13.1176 22.1314C12.4024 22.4175 11.6045 22.4175 10.8893 22.1314L2.82275 18.9048C1.73591 18.47 0.996228 17.4415 0.946468 16.263C0.888695 14.8947 0.80548 12.646 0.785627 10.6379C0.775718 9.63555 0.781425 8.67972 0.815263 7.91842C0.832124 7.53909 0.856604 7.1924 0.892337 6.90534ZM11.0034 20.023V11.1745C10.9659 11.1612 10.9286 11.1471 10.8915 11.1323L2.81819 7.90295L2.81329 8.00723C2.78184 8.71483 2.77575 9.62868 2.78553 10.6181C2.80506 12.5935 2.88718 14.8166 2.94469 16.1786C2.96086 16.5617 3.20113 16.9021 3.56553 17.0478L11.0034 20.023ZM13.0034 20.023V11.1745C13.0409 11.1612 13.0782 11.1471 13.1154 11.1323L21.1888 7.90293L21.1937 8.00725C21.2251 8.71484 21.2312 9.62869 21.2214 10.6181C21.2019 12.5935 21.1197 14.8166 21.0622 16.1786C21.046 16.5617 20.8058 16.9021 20.4414 17.0478L13.0034 20.023ZM17.7123 5.44066C18.5046 5.73102 19.2428 6.01927 19.8493 6.28463L17.0198 7.41643L9.6755 4.21968C10.5285 3.95947 11.2611 3.74782 11.7297 3.61494C11.9034 3.5657 12.0775 3.56764 12.2516 3.62129C13.2896 3.94122 15.6337 4.67896 17.7123 5.44066ZM6.80079 5.14967L14.4084 8.461L12.3726 9.27534C12.1342 9.3707 11.8727 9.3707 11.6343 9.27534L4.02181 6.23034C4.64447 5.94382 5.42992 5.63675 6.28339 5.33163C6.45433 5.27052 6.62709 5.2098 6.80079 5.14967Z" fill="currentColor"/>
</svg>
