<svg width="24" height="24" viewBox="0 0 24 24" fill="none" xmlns="http://www.w3.org/2000/svg">
<path d="M3.6875 2C3.13522 2 2.6875 2.44772 2.6875 3C2.6875 3.55228 3.13522 4 3.6875 4C4.41592 4 5.05229 4.52928 5.18331 5.274L5.86929 9.17326C5.87521 9.20692 5.88275 9.23989 5.89182 9.2721L6.09427 10.4035C6.65989 13.5646 6.9427 15.1451 7.92079 16.2301C8.28374 16.6327 8.70938 16.9784 9.18247 17.2549C10.4574 18 12.1203 18 15.4463 18H15.8522C17.3549 18 18.1062 18 18.7246 17.7364C19.2274 17.522 19.6645 17.1864 19.9939 16.7619C20.3989 16.2398 20.5674 15.5336 20.9044 14.1212C21.4133 11.9881 21.6678 10.9215 21.3715 10.0874C21.1324 9.41416 20.6595 8.84123 20.0329 8.4655C19.2565 8 18.1217 8 15.8522 8H7.6936L7.15306 4.92747C6.85644 3.24144 5.40184 2 3.6875 2Z" fill="#346119"/>
<path d="M10.4976 20.75C10.4976 21.4404 9.93791 22 9.24756 22C8.5572 22 7.99756 21.4404 7.99756 20.75C7.99756 20.0596 8.5572 19.5 9.24756 19.5C9.93791 19.5 10.4976 20.0596 10.4976 20.75Z" fill="#346119"/>
<path d="M18.2476 22C18.9379 22 19.4976 21.4404 19.4976 20.75C19.4976 20.0596 18.9379 19.5 18.2476 19.5C17.5572 19.5 16.9976 20.0596 16.9976 20.75C16.9976 21.4404 17.5572 22 18.2476 22Z" fill="#346119"/>
</svg>
