<svg xmlns="http://www.w3.org/2000/svg" width="24" height="24" fill="none" viewBox="0 0 24 24"><path fill="#101928" fill-rule="evenodd" d="M13.0023 3C13.0023 2.44772 12.5546 2 12.0023 2C11.45 2 11.0023 2.44772 11.0023 3V3.57087C7.61018 4.05593 5.0023 6.97223 5.0023 10.4989L5.0023 14.4993C5.0023 14.4993 5.00231 14.4991 5.0023 14.4993C5.00221 14.5012 5.00153 14.5146 4.99719 14.5409C4.99199 14.5724 4.98274 14.6152 4.96749 14.6703C4.93656 14.782 4.88734 14.9211 4.81858 15.0855C4.68071 15.4151 4.48635 15.7947 4.27139 16.1776C3.86725 16.8975 3.66353 17.7554 3.81647 18.5712C3.97776 19.4316 4.53155 20.1819 5.47737 20.542C6.32227 20.8637 7.44693 21.1579 8.93217 21.333C8.96751 21.3637 9.00929 21.3987 9.0573 21.4371C9.20759 21.5574 9.4223 21.7132 9.69367 21.8682C10.2322 22.176 11.0285 22.5 12.0023 22.5C12.9761 22.5 13.7724 22.176 14.3109 21.8682C14.5823 21.7132 14.797 21.5574 14.9473 21.4371C14.9953 21.3987 15.0371 21.3637 15.0724 21.333C16.5577 21.1579 17.6823 20.8637 18.5272 20.542C19.4731 20.1819 20.0269 19.4316 20.1881 18.5712C20.3411 17.7554 20.1374 16.8975 19.7332 16.1776C19.5183 15.7947 19.3239 15.4151 19.186 15.0855C19.1173 14.9211 19.068 14.782 19.0371 14.6703C19.0219 14.6152 19.0126 14.5724 19.0074 14.5409C19.0031 14.5146 19.0024 14.5015 19.0023 14.4996C19.0023 14.4994 19.0023 14.4996 19.0023 14.4996L19.0023 14.4911V10.4994C19.0023 6.9728 16.3945 4.05601 13.0023 3.57088V3ZM7.0023 10.4989C7.0023 7.73772 9.24064 5.5 12.0023 5.5C14.7639 5.5 17.0023 7.73809 17.0023 10.4994V14.5C17.0023 14.9629 17.1758 15.4623 17.3409 15.8571C17.5203 16.2861 17.7554 16.74 17.9892 17.1566C18.2166 17.5616 18.2708 17.9444 18.2224 18.2027C18.1823 18.4166 18.0754 18.574 17.8156 18.6729C16.7407 19.0822 14.9262 19.5 12.0023 19.5C9.07838 19.5 7.26391 19.0822 6.18905 18.6729C5.92919 18.574 5.82231 18.4166 5.78223 18.2027C5.7338 17.9444 5.78802 17.5616 6.01539 17.1566C6.24924 16.74 6.48433 16.2861 6.66372 15.8571C6.82885 15.4623 7.0023 14.9629 7.0023 14.5V10.4989Z" clip-rule="evenodd"/></svg>